<?xml version="1.0" encoding="UTF-8"?>
<!DOCTYPE svg PUBLIC "-//W3C//DTD SVG 1.1//EN" "http://www.w3.org/Graphics/SVG/1.1/DTD/svg11.dtd">
<!-- Creator: CorelDRAW X7 -->
<svg xmlns="http://www.w3.org/2000/svg" xml:space="preserve" width="100mm" height="90mm" version="1.1" style="shape-rendering:geometricPrecision; text-rendering:geometricPrecision; image-rendering:optimizeQuality; fill-rule:evenodd; clip-rule:evenodd"
viewBox="0 0 10000 9000"
 xmlns:xlink="http://www.w3.org/1999/xlink">
 <defs>
  <style type="text/css">
   <![CDATA[
    .str0 {stroke:#2B2A29;stroke-width:20}
    .fil3 {fill:none}
    .fil1 {fill:#87AB53;fill-opacity:0.631373}
    .fil2 {fill:url(#id0);fill-opacity:0.631373}
    .fil0 {fill:url(#id1);fill-opacity:0.631373}
   ]]>
  </style>
  <linearGradient id="id0" gradientUnits="userSpaceOnUse" x1="2044.54" y1="5437.66" x2="7362.67" y2="5437.66">
   <stop offset="0" style="stop-opacity:1; stop-color:#379F98"/>
   <stop offset="1" style="stop-opacity:1; stop-color:#FEFEFE"/>
  </linearGradient>
  <linearGradient id="id1" gradientUnits="userSpaceOnUse" x1="3566.67" y1="3256.52" x2="9110.03" y2="3256.52">
   <stop offset="0" style="stop-opacity:1; stop-color:#78C3E3"/>
   <stop offset="1" style="stop-opacity:1; stop-color:#FEFEFE"/>
  </linearGradient>
 </defs>
 <g id="Слой_x0020_1">
  <metadata id="CorelCorpID_0Corel-Layer"/>
  <path class="fil0" d="M6338 485c1531,0 2772,1241 2772,2772 0,1530 -1241,2771 -2772,2771 -1530,0 -2771,-1241 -2771,-2771 0,-1531 1241,-2772 2771,-2772z"/>
  <path class="fil1" d="M3258 1734c1268,0 2297,1029 2297,2297 0,1269 -1029,2297 -2297,2297 -1269,0 -2297,-1028 -2297,-2297 0,-1268 1028,-2297 2297,-2297z"/>
  <path class="fil2" d="M4704 2779c1468,0 2659,1190 2659,2659 0,1468 -1191,2659 -2659,2659 -1469,0 -2659,-1191 -2659,-2659 0,-1469 1190,-2659 2659,-2659z"/>
  <path class="fil3 str0" d="M3672 3522c-98,-431 -1163,-261 -1077,317 142,957 437,1249 1247,580 147,-121 -99,-617 83,-803"/>
  <path class="fil3 str0" d="M5118 4928c-98,-431 -1163,-260 -1077,318 142,956 437,1248 1247,580 147,-121 -99,-618 83,-804"/>
  <path class="fil3 str0" d="M6786 2857c-98,-431 -1163,-260 -1078,317 143,957 438,1249 1248,581 147,-121 -100,-618 83,-804"/>
 </g>
</svg>
