<?xml version="1.0" encoding="UTF-8"?>
<!DOCTYPE svg PUBLIC "-//W3C//DTD SVG 1.1//EN" "http://www.w3.org/Graphics/SVG/1.1/DTD/svg11.dtd">
<!-- Creator: CorelDRAW X7 -->
<svg xmlns="http://www.w3.org/2000/svg" xml:space="preserve" width="100%" height="100%" version="1.1" style="shape-rendering:geometricPrecision; text-rendering:geometricPrecision; image-rendering:optimizeQuality; fill-rule:evenodd; clip-rule:evenodd"
viewBox="0 0 21000 17000"
 xmlns:xlink="http://www.w3.org/1999/xlink"
 xmlns:x="&ns_extend;"
 xmlns:i="&ns_ai;"
 xmlns:graph="&ns_graphs;"
 xmlns:a="http://ns.adobe.com/AdobeSVGViewerExtensions/3.0/"
 enable-background="new 0 0 4708.001 2329.999">
 <defs>
  <style type="text/css">
   <![CDATA[
    .str1 {stroke:#FEFEFE;stroke-width:20}
    .str2 {stroke:#2B2A29;stroke-width:20}
    .str0 {stroke:#00A0E3;stroke-width:20}
    .fil5 {fill:none}
    .fil4 {fill:#EBECEC}
    .fil2 {fill:#D9DADA}
    .fil6 {fill:#9D9E9E}
    .fil0 {fill:#DECA08}
    .fil3 {fill:#00A0E3}
    .fil1 {fill:#393185}
   ]]>
  </style>
 </defs>
 <g id="Слой_x0020_1">
  <metadata id="CorelCorpID_0Corel-Layer"/>
  <rect class="fil0" x="73" y="43" width="20927" height="16957"/>
  <polygon class="fil1" points="82,3881 20389,3883 20266,6906 19746,6589 18926,7444 19598,11452 19561,11910 19340,12524 2491,13738 2230,13618 2298,11784 99,7312 88,6237 "/>
  <path class="fil2" d="M5542 6669c-17,-229 -21,-457 -46,-602 -24,-145 -69,-207 -232,-387 -162,-180 -442,-478 -727,-671 -284,-193 -572,-281 -892,-364 -321,-82 -674,-158 -947,-167 -273,-9 -467,50 -617,129 -150,79 -256,179 -388,356 -133,176 -291,429 -488,752 -197,324 -433,718 -609,976 -176,259 -294,383 -370,456 -76,74 -110,97 -127,165 -17,67 -17,179 -17,529 0,350 0,938 0,1646 0,709 0,1538 10,1931 10,393 31,351 953,-399 923,-749 2748,-2206 3645,-3049 898,-843 868,-1073 852,-1301z"/>
  <polygon class="fil3" points="82,24 21000,0 21000,812 20517,833 19555,2170 9555,3170 4555,3670 1555,3170 82,3169 83,2767 "/>
  <path class="fil4 str0" d="M86 5970c-4,-666 -4,-1978 -4,-2704 0,-726 0,-867 55,-993 55,-127 166,-238 310,-374 143,-135 319,-294 534,-385 215,-91 467,-114 706,-47 238,68 461,227 664,350 203,123 385,212 497,344 112,132 153,309 209,423 55,115 126,168 211,209 85,41 185,71 303,74 118,2 253,-21 388,0 135,20 271,85 429,129 159,44 341,67 497,47 156,-21 285,-85 368,-165 82,-79 117,-173 114,-282 -3,-109 -44,-232 -47,-332 -3,-100 33,-177 135,-288 103,-112 274,-259 391,-353 118,-94 183,-135 315,-191 132,-56 332,-127 514,-141 183,-15 347,26 546,58 198,32 430,55 606,44 177,-11 299,-56 401,-65 101,-9 183,18 -17,841 -200,822 -683,2440 -1044,3208 -362,767 -603,685 -766,640 -162,-45 -246,-53 -288,-56 -42,-4 -42,-4 -175,-168 -133,-164 -399,-491 -511,-661 -113,-169 -71,-181 -66,-231 6,-50 -23,-138 -117,-193 -94,-54 -253,-75 -449,-135 -195,-60 -427,-160 -729,-264 -301,-105 -671,-214 -1006,-244 -336,-31 -635,16 -859,75 -223,58 -370,129 -517,276 -147,147 -294,370 -518,705 -223,336 -523,782 -694,1021 -170,238 -211,267 -247,305 -36,37 -67,83 -83,113 -16,30 -18,45 -17,46 1,2 4,-10 1,0 -3,10 -12,43 -20,48 -9,5 -17,-17 -20,-684z"/>
  <path class="fil5 str0" d="M881 1109c93,-42 220,-95 361,-131 141,-37 297,-58 532,-58 235,0 550,21 769,115 219,94 342,262 545,484 203,222 485,498 758,661 274,163 538,213 713,219 175,6 261,-32 316,-134 56,-101 83,-266 37,-360 -45,-94 -163,-117 -250,-186 -86,-70 -142,-184 -125,-280 18,-95 109,-172 225,-173 116,-2 257,72 369,79 112,8 194,-51 237,-109 42,-57 45,-113 97,-177 51,-65 151,-139 220,-178 69,-40 108,-46 341,-72 234,-27 663,-74 1154,-77 491,-3 1044,38 1582,103 538,65 1061,153 1611,221 550,67 1126,114 1502,141 376,26 553,32 615,-6 61,-38 8,-121 -62,-162 -71,-41 -159,-41 -197,-62 -38,-20 -27,-61 73,-88 100,-26 288,-38 477,-12 188,27 376,92 467,171 91,79 85,173 168,218 82,44 252,38 414,14 162,-23 315,-64 629,-201 315,-137 791,-370 1091,-528 300,-159 423,-244 558,-295 136,-52 283,-69 480,-27 197,43 444,145 693,180 250,36 503,4 721,-33 217,-37 400,-78 570,-62 171,16 329,90 638,91 309,1 767,-69 997,-104 229,-35 229,-35 232,-37 4,-1 11,-5 105,-47 94,-43 275,-125 366,-166 90,-41 90,-41 -3396,-41 -3487,0 -10460,0 -13946,0 -3486,0 -3486,0 -3486,24 0,23 0,70 0,352 0,283 0,800 0,1049 0,248 0,227 33,189 34,-38 102,-94 199,-164 98,-71 225,-156 319,-214 94,-57 155,-86 248,-127z"/>
  <path class="fil6 str1" d="M8034 1511c158,-199 188,-215 213,-219 25,-4 45,4 115,31 69,27 188,73 264,99 76,26 109,31 120,41 12,10 2,24 -94,599 -96,574 -279,1708 -373,2288 -93,580 -97,606 -296,1013 -199,406 -592,1193 -794,1583 -202,391 -213,385 -225,374 -11,-12 -23,-30 -76,-86 -53,-57 -147,-153 -239,-295 -93,-143 -184,-331 -287,-501 -103,-170 -217,-321 -268,-397 -51,-75 -38,-75 -23,-84 16,-9 35,-27 259,-295 223,-267 650,-785 864,-1046 213,-262 213,-267 200,-590 -14,-322 -41,-961 -58,-1273 -16,-311 -21,-295 118,-478 139,-183 423,-565 580,-764z"/>
  <path class="fil6 str1" d="M8748 1501c10,-29 21,-21 42,-5 20,15 50,37 70,51 20,14 31,19 125,25 94,5 272,10 372,13 99,3 121,3 128,21 7,17 -1,53 -221,1147 -220,1094 -652,3246 -872,4327 -220,1080 -228,1088 -251,1087 -23,-2 -61,-13 -160,-61 -98,-48 -257,-134 -428,-265 -170,-130 -353,-305 -453,-400 -100,-94 -118,-108 -118,-124 0,-16 18,-35 96,-177 78,-142 216,-406 402,-778 186,-372 420,-852 546,-1118 125,-266 142,-319 163,-415 21,-96 47,-235 137,-769 89,-535 241,-1464 322,-1962 80,-499 89,-567 100,-597z"/>
  <path class="fil6 str1" d="M9489 1607c4,-7 13,-13 56,-11 43,2 121,13 166,23 44,11 55,22 153,81 97,59 282,167 381,226 99,58 112,67 109,95 -4,28 -24,75 -44,122 -21,47 -41,93 -216,629 -175,536 -504,1562 -668,2084 -164,521 -163,539 -158,594 5,56 13,149 67,583 53,435 153,1212 198,1604 46,392 39,399 20,410 -18,10 -46,24 -133,53 -88,29 -233,73 -354,99 -121,25 -218,32 -324,31 -106,0 -221,-8 -310,-15 -88,-6 -151,-10 -195,-18 -45,-7 -70,-19 -80,-27 -10,-9 -4,-14 3,-31 7,-17 15,-45 224,-1068 209,-1023 619,-3041 834,-4105 216,-1063 237,-1171 249,-1235 12,-63 15,-81 17,-94 1,-14 1,-22 5,-30z"/>
  <path class="fil6 str1" d="M10351 2031c12,-21 22,-16 130,22 108,38 315,111 409,155 94,44 76,59 -35,408 -111,349 -316,1030 -421,1389 -106,359 -111,396 -107,469 4,73 18,183 83,707 66,525 183,1464 239,1931 55,467 48,462 -27,484 -75,22 -218,71 -342,120 -124,49 -227,98 -330,146 -102,48 -203,94 -269,125 -66,30 -97,45 -110,42 -13,-3 -8,-23 -24,-193 -16,-170 -52,-489 -101,-925 -48,-437 -110,-990 -138,-1279 -27,-289 -21,-314 151,-851 173,-538 512,-1588 688,-2136 177,-548 192,-593 204,-614z"/>
  <path class="fil6 str1" d="M10940 2240c3,-4 16,0 184,-9 167,-10 490,-33 655,-45 165,-11 173,-11 62,324 -112,335 -343,1006 -459,1345 -116,340 -116,348 -46,886 70,537 210,1605 283,2145 73,539 78,552 70,558 -7,6 -28,6 -195,26 -167,21 -481,62 -642,79 -160,18 -166,11 -169,1 -2,-10 0,-25 -57,-555 -58,-530 -175,-1577 -232,-2106 -57,-530 -55,-541 48,-887 102,-345 305,-1023 406,-1367 102,-344 102,-354 99,-366 -3,-11 -10,-24 -7,-29z"/>
  <path class="fil6 str1" d="M11905 2206c0,-3 4,4 131,5 127,1 376,-5 500,-6 125,0 125,6 121,17 -3,12 -10,30 -80,364 -69,333 -202,984 -266,1317 -64,334 -60,352 3,855 63,502 184,1490 245,1991 61,501 61,516 51,526 -11,9 -31,13 -186,41 -155,27 -445,77 -590,98 -144,22 -144,13 -210,-524 -67,-537 -201,-1603 -264,-2159 -64,-556 -57,-602 48,-931 104,-328 305,-940 406,-1248 101,-308 101,-313 99,-321 -3,-9 -7,-22 -8,-25z"/>
  <path class="fil6 str1" d="M12803 2223c147,-7 439,-13 589,-14 150,-2 158,2 99,235 -60,233 -188,696 -251,956 -64,260 -63,317 10,897 74,580 220,1683 289,2241 70,558 63,570 54,579 -8,8 -19,12 -176,37 -156,25 -458,72 -617,95 -159,24 -175,25 -184,0 -8,-24 -11,-74 -68,-580 -57,-506 -170,-1467 -222,-1985 -53,-517 -45,-591 18,-918 63,-327 181,-907 242,-1203 60,-296 63,-309 65,-318 3,-9 5,-16 152,-22z"/>
  <path class="fil6 str1" d="M13617 2227c102,-13 312,-24 459,-49 147,-26 232,-67 275,-84 43,-16 44,-8 41,22 -3,29 -12,80 -46,271 -35,191 -97,523 -129,722 -32,198 -35,264 38,838 74,574 222,1658 297,2204 76,546 77,556 65,572 -13,16 -39,40 -123,89 -84,49 -226,124 -348,173 -122,48 -224,70 -313,88 -89,17 -164,30 -201,32 -37,2 -35,-7 -101,-556 -66,-549 -200,-1637 -267,-2213 -67,-575 -67,-637 -13,-889 54,-253 162,-695 217,-922 55,-227 56,-239 54,-253 -2,-15 -7,-31 95,-45z"/>
  <path class="fil6 str1" d="M14458 2086c79,-54 232,-109 321,-166 89,-57 113,-118 154,-158 41,-41 99,-63 156,-93 57,-30 115,-69 148,-82 32,-14 40,-3 38,41 -3,43 -17,120 -37,388 -21,267 -48,726 -51,1035 -2,308 19,467 78,923 59,456 155,1210 202,1592 47,383 47,394 28,415 -18,22 -54,54 -204,179 -149,126 -412,344 -542,449 -130,104 -129,94 -198,-484 -70,-579 -211,-1727 -279,-2324 -67,-598 -61,-645 -32,-812 28,-166 79,-452 107,-622 28,-171 32,-226 111,-281z"/>
  <path class="fil6 str1" d="M15350 1547c102,-42 318,-123 499,-176 182,-53 330,-77 405,-80 75,-3 77,17 99,708 22,691 63,2054 77,2742 13,688 0,702 -96,743 -95,41 -273,109 -426,197 -154,87 -283,194 -346,235 -63,41 -60,16 -109,-409 -49,-425 -151,-1251 -204,-1727 -53,-476 -57,-603 -45,-903 12,-301 42,-775 56,-1019 14,-243 13,-256 6,-263 -6,-7 -18,-7 84,-48z"/>
  <path class="fil6 str1" d="M16350 1281c77,-22 249,-53 463,-65 213,-12 468,-4 599,8 131,13 139,29 124,708 -15,679 -53,2020 -77,2693 -23,673 -31,679 -75,680 -43,2 -123,-1 -164,-6 -41,-5 -43,-12 -45,-28 -1,-16 -1,-41 -4,-54 -3,-12 -9,-12 -86,-7 -78,6 -226,17 -319,48 -93,31 -130,83 -155,111 -25,28 -37,32 -63,40 -26,7 -66,18 -85,16 -19,-3 -18,-19 -37,-692 -20,-673 -60,-2003 -83,-2680 -23,-677 -28,-702 -40,-720 -11,-19 -30,-30 47,-52z"/>
  <path class="fil6 str1" d="M17639 1262c141,-6 437,8 672,10 235,2 410,-9 500,-7 90,3 95,20 5,742 -90,723 -276,2151 -377,2860 -101,709 -117,698 -179,668 -61,-30 -168,-79 -288,-119 -120,-40 -254,-70 -354,-87 -100,-16 -167,-20 -193,-38 -25,-18 -10,-51 16,-699 25,-648 61,-1913 77,-2561 16,-649 12,-682 3,-710 -9,-29 -22,-54 118,-59z"/>
  <path class="fil6 str1" d="M18842 1274c10,-8 50,-8 142,-6 92,1 235,3 346,-9 112,-11 191,-36 274,-84 83,-47 171,-118 251,-158 81,-40 155,-48 194,-42 40,5 45,24 -94,849 -139,825 -423,2456 -574,3271 -150,815 -166,815 -237,780 -71,-36 -197,-107 -264,-142 -67,-36 -75,-36 -87,-26 -12,9 -29,29 -47,34 -17,5 -36,-3 -103,-33 -67,-30 -182,-82 -242,-121 -60,-39 -66,-66 27,-762 93,-696 285,-2062 376,-2759 91,-696 82,-724 66,-746 -15,-22 -37,-38 -28,-46z"/>
  <path class="fil6 str1" d="M20085 982c18,-6 58,-11 128,-37 70,-26 170,-75 227,-102 56,-27 68,-33 74,-24 7,8 7,32 -34,976 -41,944 -122,2807 -167,3740 -44,934 -53,936 -166,891 -113,-46 -332,-140 -443,-194 -110,-54 -113,-68 -112,-86 1,-18 5,-39 -8,-57 -12,-18 -41,-32 -109,-65 -68,-34 -176,-88 -226,-121 -50,-32 -41,-44 72,-640 114,-596 333,-1778 475,-2570 143,-793 208,-1196 241,-1412 33,-217 35,-245 34,-264 -1,-19 -4,-28 14,-35z"/>
  <polygon class="fil6 str1" points="16087,8281 17636,8150 18455,8715 18431,9281 16587,9453 16185,8978 "/>
  <polygon class="fil6 str1" points="19746,6589 19508,6450 19393,6540 18869,6253 18488,8724 19377,8957 "/>
  <path class="fil6 str1" d="M16736 5675c709,-129 1242,56 1242,56l-342 2419 -732 62 -168 -2537z"/>
  <polygon class="fil6 str1" points="17978,5731 18573,6020 18573,6106 18869,6253 18488,8724 17636,8150 "/>
  <polygon class="fil6 str1" points="18455,8715 19377,8957 19598,11452 18631,11567 18431,9281 "/>
  <path class="fil6 str1" d="M16736 5675c-629,58 -1027,525 -1027,525l378 2081 817 -69 -168 -2537z"/>
  <polygon class="fil6 str1" points="15709,6200 15205,6679 15193,6774 14890,6982 15246,9142 16185,8978 "/>
  <path class="fil6 str1" d="M14890 6982c-250,201 -836,357 -836,357l287 1954 905 -151 -356 -2160z"/>
  <path class="fil6 str1" d="M13070 7548c263,-16 984,-209 984,-209l287 1954 -976 189 -295 -1934z"/>
  <path class="fil6 str1" d="M13070 7548l295 1934 -967 139 -311 -1909c0,0 328,-25 492,-74 164,-49 491,-90 491,-90z"/>
  <path class="fil6 str1" d="M12087 7712c0,0 -250,74 -430,90 -180,16 -484,0 -484,0l49 492 -65 61c0,0 37,484 123,492 86,8 110,926 110,926l1008 -152 -311 -1909z"/>
  <path class="fil6 str1" d="M17692 11674c270,33 939,-107 939,-107l-200 -2286 -922 86 183 2307z"/>
  <polygon class="fil6 str1" points="16730,11735 16587,9453 17509,9367 17692,11674 "/>
  <polygon class="fil6 str1" points="15510,9096 15745,11756 15901,11748 15934,11879 16730,11735 16587,9453 16185,8978 "/>
  <polygon class="fil6 str1" points="15510,9096 14536,9261 14778,11877 15594,11885 15614,11795 15745,11756 "/>
  <path class="fil6 str1" d="M13227 11854c299,62 1551,23 1551,23l-242 -2616 -660 122 -116 1337 -533 1134z"/>
  <polyline class="fil5 str1" points="13227,11854 12818,11736 12809,11596 "/>
  <path class="fil6 str1" d="M12798 11600c-296,-66 -736,-486 -736,-486l1811 -1699 -138 1321 -525 1118 -404 -117 -8 -137z"/>
  <path class="fil6 str1" d="M12062 11103c-148,-62 -348,-500 -348,-500l-119 4c0,0 -119,-295 -131,-344 -13,-49 -74,-490 -74,-490l2511 -395 -1839 1725z"/>
  <path class="fil6 str1" d="M18619 12008l942 -98c0,0 221,2450 221,2450 0,0 -959,414 -942,418l-221 -2770z"/>
  <path class="fil6 str1" d="M18619 12008l-1008 -25 295 3278c311,-106 934,-483 934,-483l-221 -2770z"/>
  <path class="fil6 str1" d="M17611 11983c-262,74 -484,82 -484,82l-434 33 287 3597c180,-8 926,-434 926,-434l-295 -3278z"/>
  <path class="fil6 str1" d="M16693 12098l-1008 123 311 3794c181,-12 984,-320 984,-320l-287 -3597z"/>
  <polygon class="fil6 str1" points="14694,12258 15685,12221 15996,16015 14661,16002 "/>
  <polygon class="fil6 str1" points="14694,12258 13706,12274 13608,15998 14661,16002 "/>
  <path class="fil6 str1" d="M13706 12274c-262,27 -963,-170 -963,-170l-1422 3757c287,82 2287,137 2287,137l98 -3724z"/>
  <path class="fil6 str1" d="M12743 12104c-127,-29 -660,-385 -660,-385l-94 65 -304 -315 -3310 3126c377,65 1516,713 1737,876 221,164 1209,390 1209,390l1422 -3757z"/>
  <path class="fil6 str1" d="M11685 11469l-365 -472 99 -110c-209,-242 -308,-971 -308,-971l-1827 844 -1385 3605 476 230 3310 -3126z"/>
  <path class="fil6 str1" d="M6801 13923c361,33 1098,442 1098,442l1385 -3605 -1729 16 -754 3147z"/>
  <path class="fil6 str1" d="M7555 10776l-164 -8 -1287 746 -245 2253c360,-49 942,156 942,156l754 -3147z"/>
  <path class="fil6 str1" d="M6104 11514l-1679 999 -1328 1197c574,-90 2762,57 2762,57l245 -2253z"/>
  <polygon class="fil6 str1" points="3097,13710 2491,13738 2565,11977 4425,12513 "/>
  <path class="fil6 str1" d="M4425 12513l323 -192 -1192 -1590c-647,361 -991,1246 -991,1246l1860 536z"/>
  <path class="fil6 str1" d="M4748 12321l607 -361 -816 -1876c-598,229 -983,647 -983,647l1192 1590z"/>
  <path class="fil6 str1" d="M6104 11514l-434 -1701c-319,156 -459,115 -672,140 -213,24 -459,131 -459,131l816 1876 749 -446z"/>
  <path class="fil6 str1" d="M7391 10768l-1287 746 -434 -1701c590,-106 885,-368 885,-368l836 1323z"/>
  <path class="fil6 str1" d="M8473 10767l-1082 1 -836 -1323c557,-328 762,-820 762,-820l1156 2142z"/>
  <path class="fil6 str1" d="M7317 8625l205 -352c557,311 1131,311 1131,311l631 2176 -811 7 -1156 -2142z"/>
  <path class="fil6 str1" d="M8653 8584c737,-41 1213,-328 1213,-328l332 2082 -914 422 -631 -2176z"/>
  <path class="fil6 str1" d="M9866 8256c360,-237 942,-368 942,-368l57 557c57,547 246,1471 246,1471l-913 422 -332 -2082z"/>
  <path class="fil6 str1" d="M2298 11784l-2155 -57 1221 -1598 1246 967c-279,303 -312,688 -312,688z"/>
  <path class="fil6 str1" d="M1364 10129l844 -1066 1057 1418c-368,221 -655,615 -655,615l-1246 -967z"/>
  <path class="fil6 str1" d="M2208 9063l738 -1008 1139 1885c-402,238 -820,541 -820,541l-1057 -1418z"/>
  <path class="fil6 str1" d="M2946 8055l131 -188 934 418 533 -230 336 1541c-435,98 -795,344 -795,344l-1139 -1885z"/>
  <path class="fil6 str1" d="M5563 8359l998 -928c279,492 341,423 623,681 66,59 -270,464 -353,577 -273,374 -826,621 -826,621l-442 -951z"/>
  <polygon class="fil6 str1" points="5117,7302 5328,5723 6561,7431 5563,8359 "/>
  <path class="fil6 str1" d="M4544 8055l573 -753 888 2008c-507,211 -1125,286 -1125,286l-336 -1541z"/>
  <path class="fil4 str0" d="M872 1128c93,-41 220,-94 361,-131 141,-36 297,-57 532,-57 235,0 550,21 769,115 219,94 342,261 545,483 203,222 485,499 759,662 273,163 538,213 713,219 174,6 260,-33 316,-134 55,-101 82,-266 36,-360 -45,-94 -163,-118 -250,-187 -86,-69 -142,-184 -125,-279 18,-96 109,-172 225,-174 116,-1 258,73 369,80 112,7 194,-52 237,-109 43,-57 46,-113 97,-178 51,-64 151,-138 220,-178 70,-39 108,-45 342,-72 233,-26 662,-73 1153,-76 491,-3 1044,38 1582,103 538,64 1061,153 1611,220 550,68 1126,115 1502,141 377,27 553,33 615,-5 61,-39 9,-121 -62,-162 -71,-41 -159,-41 -197,-62 -38,-20 -26,-62 73,-88 100,-27 289,-38 477,-12 188,27 376,91 467,171 91,79 85,173 168,217 82,44 253,38 414,15 162,-24 315,-65 629,-202 315,-136 791,-369 1091,-528 300,-159 423,-243 559,-295 135,-51 282,-69 479,-26 197,42 444,145 694,180 250,35 502,3 720,-33 217,-37 400,-78 570,-62 171,16 329,89 638,91 309,1 767,-69 997,-104 229,-35 229,-35 233,-37 3,-2 10,-5 104,-47 94,-43 275,-125 366,-166 90,-41 90,-41 -3396,-41 -3487,0 -10459,0 -13946,0 -3486,0 -3486,0 -3486,23 0,24 0,71 0,353 0,282 0,800 0,1048 0,249 0,228 34,190 33,-38 101,-94 198,-165 98,-70 226,-156 320,-213 93,-57 154,-87 247,-128z"/>
  <path class="fil5 str2" d="M11625 7700c289,-43 578,-87 856,-128 277,-41 544,-80 816,-135 272,-55 549,-127 770,-191 220,-64 384,-121 531,-191 147,-70 277,-152 363,-216 87,-64 129,-108 242,-219 113,-111 296,-288 462,-443 167,-155 317,-287 491,-378 174,-90 373,-138 548,-168 176,-29 329,-40 482,-50"/>
  <path class="fil5 str2" d="M662 6503c277,-450 553,-900 760,-1219 208,-319 346,-507 512,-632 166,-125 360,-186 570,-210 210,-23 437,-9 742,56 306,65 691,179 999,316 307,137 536,295 762,498 227,203 450,450 674,697"/>
  <path class="fil5 str2" d="M2576 11795c141,-221 282,-441 424,-616 141,-175 282,-305 483,-466 202,-162 463,-356 703,-497 239,-141 457,-229 654,-281 197,-51 373,-66 600,-119 226,-53 502,-144 717,-240 215,-95 367,-195 498,-292 130,-97 237,-190 337,-308 100,-118 193,-260 285,-403"/>
  <path class="fil5 str2" d="M12423 11842c168,85 335,170 548,229 214,59 472,91 738,106 266,15 540,12 812,7 272,-4 542,-10 846,-29 305,-19 643,-51 1056,-90 413,-38 901,-82 1312,-110 412,-28 747,-40 1007,-51 261,-12 446,-24 631,-36"/>
  <path class="fil5 str2" d="M11215 1928c595,24 1190,48 1690,45 500,-3 904,-33 1195,-85 290,-52 466,-125 722,-244 256,-119 591,-284 884,-399 293,-115 543,-180 834,-196 291,-16 623,17 989,40 365,24 765,39 1087,46 322,8 566,8 832,-60 266,-68 554,-203 842,-338"/>
 </g>
</svg>
