<?xml version="1.0" encoding="UTF-8"?>
<!DOCTYPE svg PUBLIC "-//W3C//DTD SVG 1.1//EN" "http://www.w3.org/Graphics/SVG/1.1/DTD/svg11.dtd">
<!-- Creator: CorelDRAW X7 -->
<svg xmlns="http://www.w3.org/2000/svg" xml:space="preserve" width="100%" height="100%" version="1.1" style="shape-rendering:geometricPrecision; text-rendering:geometricPrecision; image-rendering:optimizeQuality; fill-rule:evenodd; clip-rule:evenodd"
viewBox="0 0 21000 29700"
 xmlns:xlink="http://www.w3.org/1999/xlink"
 xmlns:x="&ns_extend;"
 xmlns:i="&ns_ai;"
 xmlns:graph="&ns_graphs;"
 xmlns:a="http://ns.adobe.com/AdobeSVGViewerExtensions/3.0/"
 enable-background="new 0 0 4708.001 2329.999">
 <defs>
  <style type="text/css">
   <![CDATA[
    .str2 {stroke:#2B2A29;stroke-width:20}
    .str1 {stroke:#00A0E3;stroke-width:20}
    .str0 {stroke:#009846;stroke-width:20}
    .fil2 {fill:none}
    .fil0 {fill:#EBECEC}
    .fil1 {fill:#4B8BF5}
   ]]>
  </style>
 </defs>
 <g id="Слой_x0020_1">
  <metadata id="CorelCorpID_0Corel-Layer"/>
  <rect class="fil0 str0" x="26" y="30" width="20918" height="17462"/>
  <rect class="fil1" x="7827" y="497" width="12597" height="1920"/>
  <path class="fil2 str1" d="M7979 1541c157,-199 188,-214 213,-218 25,-4 45,3 114,30 70,27 189,74 264,99 76,26 109,32 121,42 12,9 2,24 -94,598 -97,574 -279,1709 -373,2289 -93,580 -97,606 -296,1012 -199,406 -592,1193 -794,1584 -203,390 -213,385 -225,373 -12,-11 -24,-29 -77,-86 -52,-57 -146,-153 -239,-295 -92,-142 -184,-331 -287,-500 -102,-170 -216,-322 -267,-397 -51,-76 -39,-76 -23,-85 16,-9 35,-26 258,-294 223,-268 651,-785 864,-1047 214,-262 214,-267 200,-589 -13,-323 -41,-962 -57,-1273 -16,-312 -22,-295 118,-478 139,-183 423,-566 580,-765z"/>
  <path class="fil2 str1" d="M8692 1532c11,-30 22,-21 43,-6 20,16 49,38 69,51 21,14 32,20 126,25 94,5 272,11 371,14 100,2 122,2 129,20 6,18 -2,53 -222,1147 -220,1094 -651,3247 -871,4327 -220,1080 -228,1088 -251,1087 -23,-1 -62,-12 -160,-61 -99,-48 -257,-134 -428,-264 -171,-131 -353,-306 -454,-401 -100,-94 -117,-107 -117,-124 0,-16 18,-35 96,-177 78,-141 215,-405 401,-777 186,-372 421,-852 546,-1118 126,-267 142,-319 164,-415 21,-96 47,-236 136,-770 90,-534 242,-1463 322,-1962 81,-499 90,-566 100,-596z"/>
  <path class="fil2 str1" d="M9434 1638c4,-8 13,-14 56,-11 43,2 121,12 165,23 45,10 56,21 153,80 98,60 282,168 381,226 99,59 113,68 109,96 -3,28 -23,75 -44,121 -20,47 -41,93 -215,630 -175,536 -504,1561 -668,2083 -164,522 -163,539 -158,595 5,55 13,148 67,583 53,435 152,1212 198,1603 46,392 38,400 20,410 -18,10 -47,24 -134,53 -87,29 -232,73 -353,99 -122,26 -219,32 -324,32 -106,-1 -221,-9 -310,-15 -89,-6 -151,-10 -196,-18 -44,-8 -70,-19 -79,-28 -10,-8 -5,-14 3,-30 7,-17 15,-45 224,-1068 209,-1023 619,-3042 834,-4105 216,-1064 237,-1172 249,-1235 12,-63 15,-81 16,-95 2,-13 2,-22 6,-29z"/>
  <path class="fil2 str1" d="M10296 2061c12,-20 22,-16 130,22 108,39 314,111 409,155 94,44 76,60 -35,408 -112,349 -316,1030 -422,1390 -105,359 -110,396 -106,469 4,73 18,182 83,707 66,524 183,1464 238,1931 56,467 49,461 -26,483 -75,22 -219,71 -342,120 -124,50 -228,99 -330,147 -103,47 -204,94 -270,124 -65,31 -96,45 -109,43 -13,-3 -9,-23 -24,-193 -16,-170 -52,-490 -101,-926 -49,-437 -110,-990 -138,-1279 -28,-289 -22,-313 151,-851 172,-537 511,-1587 688,-2135 177,-548 191,-594 204,-615z"/>
  <path class="fil2 str1" d="M10885 2271c3,-5 16,-1 183,-10 168,-9 490,-33 656,-44 165,-12 173,-12 61,323 -111,336 -343,1006 -458,1346 -116,339 -116,347 -46,885 70,538 210,1605 282,2145 73,540 79,552 71,558 -7,6 -28,6 -195,27 -167,20 -482,61 -642,79 -160,17 -167,11 -169,0 -2,-10 0,-24 -58,-555 -57,-530 -174,-1577 -231,-2106 -57,-529 -55,-541 48,-886 102,-345 304,-1024 406,-1368 101,-344 102,-354 99,-365 -3,-12 -10,-25 -7,-29z"/>
  <path class="fil2 str1" d="M11850 2236c0,-3 4,4 131,5 126,1 375,-5 500,-5 125,0 125,5 121,17 -3,11 -10,29 -80,363 -69,334 -202,984 -266,1318 -64,334 -60,352 3,854 62,503 184,1490 245,1991 61,502 61,517 50,526 -10,10 -30,14 -186,41 -155,27 -444,78 -589,99 -144,21 -144,13 -211,-524 -66,-538 -200,-1604 -263,-2160 -64,-556 -57,-602 47,-930 105,-329 306,-940 407,-1248 101,-308 101,-313 98,-322 -2,-9 -7,-22 -7,-25z"/>
  <path class="fil2 str1" d="M12747 2253c147,-6 440,-13 590,-14 150,-1 158,2 98,235 -59,234 -187,697 -251,956 -63,260 -62,317 11,897 73,580 220,1684 289,2242 70,557 63,570 54,578 -9,8 -20,12 -176,38 -156,25 -458,71 -617,95 -159,24 -175,24 -184,0 -9,-25 -11,-75 -68,-581 -58,-506 -170,-1467 -223,-1984 -52,-518 -44,-592 19,-918 63,-327 181,-908 241,-1204 61,-296 64,-308 66,-318 2,-9 4,-16 151,-22z"/>
  <path class="fil2 str1" d="M13562 2258c102,-14 312,-24 459,-50 147,-26 232,-67 275,-83 43,-17 44,-8 41,21 -4,29 -12,80 -47,271 -34,191 -96,523 -128,722 -32,199 -35,264 38,839 73,574 222,1657 297,2203 75,547 77,556 64,572 -12,17 -38,40 -122,89 -84,49 -226,125 -348,173 -122,49 -225,70 -314,88 -88,17 -164,31 -200,33 -37,2 -35,-7 -101,-556 -66,-549 -200,-1638 -267,-2213 -67,-576 -67,-638 -14,-890 54,-252 163,-694 218,-921 54,-228 56,-240 54,-254 -2,-14 -8,-31 95,-44z"/>
  <path class="fil2 str1" d="M14403 2117c79,-55 232,-109 321,-167 88,-57 113,-117 154,-158 41,-41 98,-63 156,-93 57,-30 114,-68 147,-82 33,-14 41,-3 38,41 -2,44 -16,120 -36,388 -21,268 -48,726 -51,1035 -3,309 19,467 78,923 59,457 154,1210 202,1593 47,382 46,393 28,415 -18,21 -55,53 -204,179 -149,125 -412,344 -542,448 -131,105 -129,95 -198,-484 -70,-579 -211,-1726 -279,-2324 -67,-597 -61,-645 -33,-811 29,-167 80,-452 108,-623 27,-170 32,-225 111,-280z"/>
  <path class="fil2 str1" d="M15295 1577c102,-41 318,-122 499,-175 182,-53 329,-78 404,-80 75,-3 78,16 100,707 22,691 63,2054 76,2742 14,689 0,702 -95,743 -96,41 -273,110 -427,197 -153,88 -283,194 -346,235 -63,41 -59,17 -108,-408 -49,-426 -151,-1252 -204,-1728 -53,-476 -57,-602 -45,-903 12,-300 41,-775 55,-1018 14,-244 13,-257 7,-263 -7,-7 -18,-8 84,-49z"/>
  <path class="fil2 str1" d="M16294 1311c77,-21 250,-53 464,-65 213,-12 467,-4 598,9 131,12 140,28 125,707 -15,679 -54,2020 -77,2693 -23,674 -31,679 -75,681 -44,1 -123,-2 -164,-7 -41,-4 -44,-11 -45,-27 -1,-16 -1,-42 -4,-54 -3,-13 -10,-13 -87,-7 -77,5 -225,16 -318,47 -93,32 -130,84 -155,112 -25,28 -38,32 -64,39 -25,8 -65,19 -84,16 -19,-3 -18,-19 -37,-692 -20,-673 -60,-2002 -83,-2680 -23,-677 -28,-702 -40,-720 -12,-18 -31,-30 46,-52z"/>
  <path class="fil2 str1" d="M17584 1292c141,-5 436,9 671,10 236,2 410,-9 500,-6 91,3 96,19 6,741 -90,723 -276,2151 -377,2860 -101,709 -117,698 -179,668 -61,-30 -168,-79 -288,-119 -120,-39 -254,-69 -354,-86 -101,-17 -167,-21 -193,-39 -26,-18 -10,-50 15,-699 26,-648 62,-1912 78,-2561 16,-648 12,-681 3,-710 -9,-29 -23,-54 118,-59z"/>
  <path class="fil2 str1" d="M18787 1304c9,-8 50,-7 142,-6 92,1 235,3 346,-8 111,-12 191,-36 274,-84 83,-48 171,-119 251,-159 81,-39 154,-47 194,-42 40,5 45,25 -94,849 -139,825 -424,2456 -574,3271 -150,816 -166,816 -237,780 -71,-35 -197,-106 -264,-142 -67,-35 -75,-35 -87,-26 -13,10 -29,29 -47,34 -18,6 -37,-2 -104,-32 -67,-30 -181,-82 -241,-122 -61,-39 -66,-65 27,-761 93,-697 285,-2062 376,-2759 91,-697 82,-725 66,-747 -16,-22 -38,-38 -28,-46z"/>
  <path class="fil2 str1" d="M20030 1013c18,-7 58,-11 128,-37 70,-27 170,-75 226,-103 57,-27 69,-33 75,-24 6,9 6,33 -34,976 -41,944 -122,2808 -167,3741 -45,933 -53,936 -166,890 -114,-46 -332,-140 -443,-194 -110,-54 -113,-68 -112,-85 0,-18 4,-40 -8,-58 -12,-17 -41,-31 -109,-65 -69,-34 -177,-88 -226,-120 -50,-33 -42,-44 72,-641 114,-596 333,-1777 475,-2570 142,-792 208,-1196 241,-1412 33,-216 34,-245 33,-264 0,-19 -4,-28 15,-34z"/>
  <polygon class="fil2 str1" points="16032,8311 17581,8180 18400,8746 18375,9311 16532,9483 16130,9008 "/>
  <polygon class="fil2 str1" points="19690,6619 19453,6480 19338,6570 18814,6283 18433,8754 19322,8987 "/>
  <path class="fil2 str1" d="M16681 5706c709,-129 1241,55 1241,55l-341 2419 -732 62 -168 -2536z"/>
  <polygon class="fil2 str1" points="17922,5761 18518,6050 18518,6136 18814,6283 18433,8754 17581,8180 "/>
  <polygon class="fil2 str1" points="18400,8746 19322,8987 19542,11483 18575,11598 18375,9311 "/>
  <path class="fil2 str1" d="M16681 5706c-630,57 -1027,524 -1027,524l378 2081 817 -69 -168 -2536z"/>
  <polygon class="fil2 str1" points="15654,6230 15150,6710 15138,6804 14834,7013 15191,9172 16130,9008 "/>
  <path class="fil2 str1" d="M14834 7013c-250,201 -836,356 -836,356l287 1955 906 -152 -357 -2159z"/>
  <path class="fil2 str1" d="M13015 7578c262,-16 983,-209 983,-209l287 1955 -975 188 -295 -1934z"/>
  <path class="fil2 str1" d="M13015 7578l295 1934 -967 140 -311 -1910c0,0 327,-24 491,-73 164,-50 492,-91 492,-91z"/>
  <path class="fil2 str1" d="M12032 7742c0,0 -250,74 -431,91 -180,16 -483,0 -483,0l49 491 -65 62c0,0 37,483 123,491 86,8 110,926 110,926l1008 -151 -311 -1910z"/>
  <path class="fil2 str1" d="M17636 11704c271,33 939,-106 939,-106l-200 -2287 -922 86 183 2307z"/>
  <polygon class="fil2 str1" points="16675,11765 16532,9483 17453,9397 17636,11704 "/>
  <polygon class="fil2 str1" points="15454,9126 15690,11786 15846,11778 15879,11909 16675,11765 16532,9483 16130,9008 "/>
  <polygon class="fil2 str1" points="15454,9126 14481,9291 14723,11907 15538,11916 15559,11825 15690,11786 "/>
  <path class="fil2 str1" d="M13172 11885c299,61 1551,22 1551,22l-242 -2616 -660 123 -116 1336 -533 1135z"/>
  <polyline class="fil2 str2" points="13172,11885 12762,11766 12754,11627 "/>
  <path class="fil2 str1" d="M12743 11631c-296,-67 -736,-487 -736,-487l1811 -1699 -138 1322 -525 1118 -404 -117 -8 -137z"/>
  <path class="fil2 str1" d="M12007 11133c-148,-61 -349,-500 -349,-500l-119 4c0,0 -118,-295 -131,-344 -12,-49 -73,-490 -73,-490l2510 -394 -1838 1724z"/>
  <path class="fil2 str1" d="M18564 12038l942 -98c0,0 221,2450 221,2450 0,0 -959,414 -942,418l-221 -2770z"/>
  <path class="fil2 str1" d="M18564 12038l-1008 -24 295 3278c311,-107 934,-484 934,-484l-221 -2770z"/>
  <path class="fil2 str1" d="M17556 12014c-263,74 -484,82 -484,82l-434 32 287 3598c180,-8 926,-434 926,-434l-295 -3278z"/>
  <path class="fil2 str1" d="M16638 12128l-1008 123 311 3794c180,-12 984,-319 984,-319l-287 -3598z"/>
  <polygon class="fil2 str1" points="14638,12288 15630,12251 15941,16045 14605,16033 "/>
  <polygon class="fil2 str1" points="14638,12288 13651,12304 13552,16029 14605,16033 "/>
  <path class="fil2 str1" d="M13651 12304c-263,27 -963,-170 -963,-170l-1422 3757c287,82 2286,138 2286,138l99 -3725z"/>
  <path class="fil2 str1" d="M12688 12134c-128,-29 -660,-385 -660,-385l-95 66 -303 -316 -3310 3126c376,66 1515,713 1737,877 221,164 1209,389 1209,389l1422 -3757z"/>
  <path class="fil2 str1" d="M11630 11499l-365 -471 98 -111c-209,-242 -307,-971 -307,-971l-1827 844 -1385 3606 476 229 3310 -3126z"/>
  <path class="fil2 str1" d="M6746 13953c360,33 1098,443 1098,443l1385 -3606 -1729 17 -754 3146z"/>
  <path class="fil2 str1" d="M7500 10807l-164 -9 -1287 746 -246 2253c361,-49 943,156 943,156l754 -3146z"/>
  <path class="fil2 str1" d="M6049 11544l-1680 1000 -1327 1196c573,-90 2761,57 2761,57l246 -2253z"/>
  <polygon class="fil2 str1" points="3042,13740 2436,13769 2509,12007 4369,12544 "/>
  <path class="fil2 str1" d="M4369 12544l323 -193 -1191 -1590c-648,361 -992,1246 -992,1246l1860 537z"/>
  <path class="fil2 str1" d="M4692 12351l608 -361 -816 -1876c-598,230 -983,647 -983,647l1191 1590z"/>
  <path class="fil2 str1" d="M6049 11544l-434 -1700c-320,155 -459,114 -672,139 -213,25 -459,131 -459,131l816 1876 749 -446z"/>
  <path class="fil2 str1" d="M7336 10798l-1287 746 -434 -1700c590,-107 885,-369 885,-369l836 1323z"/>
  <path class="fil2 str1" d="M8417 10798l-1081 0 -836 -1323c557,-328 762,-820 762,-820l1155 2143z"/>
  <path class="fil2 str1" d="M7262 8655l205 -352c557,312 1131,312 1131,312l631 2175 -812 8 -1155 -2143z"/>
  <path class="fil2 str1" d="M8598 8615c737,-41 1212,-328 1212,-328l332 2081 -913 422 -631 -2175z"/>
  <path class="fil2 str1" d="M9810 8287c361,-238 943,-369 943,-369l57 557c56,547 246,1471 246,1471l-914 422 -332 -2081z"/>
  <path class="fil2 str1" d="M2243 11814l-2155 -57 1221 -1598 1245 967c-278,303 -311,688 -311,688z"/>
  <path class="fil2 str1" d="M1309 10159l844 -1065 1057 1417c-369,222 -656,615 -656,615l-1245 -967z"/>
  <path class="fil2 str1" d="M2153 9094l737 -1008 1139 1885c-401,237 -819,540 -819,540l-1057 -1417z"/>
  <path class="fil2 str1" d="M2890 8086l132 -189 934 418 532 -229 336 1540c-434,99 -795,345 -795,345l-1139 -1885z"/>
  <path class="fil2 str1" d="M5508 8389l998 -927c278,491 340,422 623,680 65,60 -271,464 -353,577 -273,374 -826,621 -826,621l-442 -951z"/>
  <polygon class="fil2 str1" points="5062,7332 5273,5753 6506,7462 5508,8389 "/>
  <path class="fil2 str1" d="M4488 8086l574 -754 888 2008c-507,212 -1126,286 -1126,286l-336 -1540z"/>
 </g>
</svg>
